<?xml version="1.0" standalone="no"?>
<!DOCTYPE svg PUBLIC "-//W3C//DTD SVG 20010904//EN"
 "http://www.w3.org/TR/2001/REC-SVG-20010904/DTD/svg10.dtd">
<svg version="1.0" xmlns="http://www.w3.org/2000/svg"
 width="988.000000pt" height="988.000000pt" viewBox="0 0 988.000000 988.000000"
 preserveAspectRatio="xMidYMid meet">
<metadata>
Created by potrace 1.14, written by Peter Selinger 2001-2017
</metadata>
<g transform="translate(0.000000,988.000000) scale(0.100000,-0.100000)"
fill="#000000" stroke="none">
<path d="M2410 9217 c0 -10 -13 -14 -51 -14 -33 1 -54 -4 -60 -14 -6 -10 -9
-11 -9 -1 0 7 -4 10 -10 7 -5 -3 -10 -1 -10 5 0 7 -5 6 -14 -2 -8 -7 -11 -17
-8 -23 3 -5 -2 -4 -11 4 -14 11 -17 11 -17 0 0 -9 -3 -10 -8 -4 -10 14 -32 17
-32 4 0 -6 -9 -9 -20 -6 -11 3 -20 2 -20 -3 0 -4 -9 -10 -20 -13 -11 -3 -20
-1 -20 4 0 4 -7 6 -15 3 -8 -4 -12 -11 -9 -16 4 -6 -3 -5 -15 1 -15 8 -21 9
-21 1 0 -6 -4 -9 -9 -5 -5 3 -12 1 -16 -4 -3 -6 -12 -8 -20 -4 -8 3 -15 0 -15
-7 0 -6 -4 -8 -10 -5 -5 3 -10 0 -10 -7 0 -9 -3 -9 -10 2 -5 8 -10 10 -10 3 0
-6 -11 -10 -25 -8 -18 1 -22 -1 -16 -9 7 -8 4 -12 -9 -12 -10 0 -16 5 -13 11
4 5 -4 1 -17 -10 -14 -12 -20 -14 -15 -5 5 9 -1 7 -15 -5 -15 -13 -21 -15 -16
-5 7 13 6 13 -6 0 -7 -8 -17 -15 -23 -16 -27 -1 -64 -17 -59 -25 8 -13 -10
-11 -24 3 -9 9 -12 8 -12 -5 0 -9 -7 -18 -15 -18 -8 -1 -21 -2 -27 -3 -7 -1
-17 -7 -21 -14 -5 -7 -12 -10 -18 -7 -5 4 -9 2 -9 -4 0 -6 -6 -8 -14 -5 -7 3
-16 -2 -20 -12 -5 -13 -9 -14 -22 -3 -12 10 -15 10 -12 -2 2 -8 -7 -15 -20
-17 -14 -2 -22 -9 -19 -16 4 -9 -3 -12 -19 -10 -13 1 -24 -1 -24 -6 0 -4 -9
-10 -21 -13 -13 -4 -18 -10 -14 -17 6 -9 2 -9 -14 -1 -18 10 -20 9 -14 -6 3
-10 3 -15 -2 -11 -4 4 -14 0 -22 -8 -8 -8 -18 -12 -23 -9 -4 3 -11 -2 -14 -11
-4 -9 -13 -14 -21 -10 -8 3 -14 0 -12 -7 1 -7 -4 -11 -10 -10 -7 2 -13 -2 -13
-7 0 -6 -7 -10 -15 -10 -8 0 -15 -5 -15 -11 0 -5 6 -7 13 -3 6 4 8 3 4 -1 -12
-14 -38 -15 -31 -2 3 7 -3 1 -14 -12 -13 -16 -24 -21 -33 -16 -11 7 -11 5 1
-11 8 -10 10 -16 6 -12 -5 4 -16 2 -24 -5 -13 -10 -15 -9 -8 3 4 8 -1 5 -12
-7 -11 -12 -23 -19 -27 -15 -5 4 -5 -1 -2 -11 4 -11 3 -16 -3 -12 -6 3 -10 1
-10 -5 0 -6 -5 -8 -10 -5 -6 3 -13 -1 -16 -9 -3 -9 -10 -13 -15 -10 -5 3 -9
-2 -9 -11 0 -11 -5 -15 -16 -11 -8 3 -12 2 -9 -4 3 -6 -1 -13 -9 -16 -9 -3
-13 -11 -9 -17 4 -6 0 -8 -10 -4 -10 3 -17 2 -17 -4 0 -6 -6 -7 -12 -3 -9 6
-9 3 0 -9 12 -14 11 -16 -6 -12 -16 3 -20 -1 -17 -15 3 -13 -1 -17 -11 -13 -8
3 -14 -1 -14 -11 0 -9 -4 -15 -8 -13 -10 3 -122 -106 -122 -119 0 -17 -49 -56
-62 -49 -7 4 -4 -1 6 -9 17 -14 18 -16 3 -16 -9 0 -17 -5 -17 -11 0 -5 -5 -7
-12 -3 -8 5 -9 2 -5 -9 4 -10 2 -16 -5 -14 -7 1 -12 -3 -13 -8 0 -12 -17 -33
-55 -70 -13 -13 -21 -27 -17 -31 8 -8 -18 -34 -35 -34 -10 0 -9 -3 2 -10 13
-8 12 -10 -2 -10 -10 0 -19 -4 -19 -10 -1 -5 -2 -16 -3 -22 -1 -7 -7 -12 -14
-11 -6 2 -9 -4 -6 -12 4 -8 1 -15 -6 -15 -6 0 -8 -5 -5 -10 3 -6 -4 -14 -17
-19 -13 -6 -17 -10 -8 -11 12 0 11 -3 -3 -11 -9 -5 -17 -18 -17 -28 0 -11 -7
-22 -16 -25 -9 -4 -14 -9 -11 -13 4 -3 1 -15 -5 -27 -7 -11 -11 -24 -10 -28 1
-5 -3 -8 -9 -8 -6 0 -8 -7 -5 -16 6 -15 4 -15 -11 -3 -14 11 -15 12 -9 0 5 -8
3 -17 -5 -22 -12 -7 -12 -9 0 -9 8 0 4 -8 -10 -21 -13 -11 -17 -17 -9 -13 12
7 13 5 3 -8 -7 -8 -10 -18 -6 -21 3 -4 -1 -7 -10 -7 -10 0 -14 -5 -11 -15 4
-8 1 -15 -6 -15 -6 0 -9 -4 -6 -9 7 -10 -16 -61 -27 -61 -5 0 -5 -4 -2 -10 3
-5 2 -10 -4 -10 -5 0 -8 -9 -6 -20 2 -11 0 -18 -6 -15 -5 4 -9 -3 -9 -15 0
-22 -19 -60 -35 -72 -6 -5 -4 -8 4 -8 12 0 12 -3 3 -12 -7 -7 -12 -20 -12 -30
0 -10 -6 -18 -12 -18 -9 0 -8 -4 2 -10 12 -8 12 -10 -5 -10 -17 0 -17 -2 -5
-10 11 -7 11 -10 2 -10 -7 0 -10 -4 -7 -10 3 -5 0 -10 -7 -10 -9 0 -9 -3 2
-10 13 -9 13 -12 0 -23 -9 -6 -14 -20 -12 -29 2 -10 -2 -18 -8 -18 -6 0 -8 -4
-5 -10 3 -5 0 -10 -7 -10 -9 0 -9 -3 2 -10 12 -8 12 -10 1 -10 -8 0 -11 -3 -8
-7 4 -3 1 -13 -6 -21 -10 -13 -9 -14 3 -7 13 7 13 6 2 -7 -10 -13 -10 -17 0
-21 9 -4 8 -6 -3 -6 -11 -1 -15 -9 -14 -26 2 -14 -1 -25 -7 -25 -6 0 -4 -7 3
-17 12 -14 12 -16 -1 -11 -12 4 -15 -3 -14 -31 0 -20 -4 -42 -10 -50 -8 -11
-8 -13 1 -8 7 5 9 0 6 -14 -4 -13 -8 -17 -13 -9 -4 6 -6 -14 -5 -44 1 -31 -2
-56 -6 -56 -9 0 -6 -20 4 -37 4 -6 1 -18 -7 -26 -11 -11 -12 -17 -3 -26 8 -8
8 -11 -1 -11 -7 0 -12 -4 -12 -10 0 -5 8 -7 18 -4 10 4 13 2 7 -3 -27 -22 -36
-41 -24 -49 8 -5 9 -3 4 6 -5 9 -4 11 4 6 8 -5 9 -12 3 -19 -6 -7 -9 -23 -8
-37 1 -14 -2 -31 -7 -37 -6 -9 -5 -13 3 -13 10 0 10 -3 1 -14 -9 -11 -9 -15 0
-18 9 -3 9 -9 0 -26 -9 -17 -9 -22 0 -22 7 0 8 -4 2 -12 -11 -15 -11 -28 0
-45 4 -6 3 -14 -1 -17 -5 -3 -6 -26 -2 -50 4 -25 3 -51 -1 -57 -4 -7 -3 -23 1
-35 6 -15 5 -26 -1 -30 -6 -4 -6 -11 2 -20 9 -11 9 -14 -1 -14 -10 0 -10 -3
-1 -14 8 -9 8 -16 2 -20 -6 -4 -7 -15 -2 -29 5 -14 5 -30 0 -40 -7 -12 -6 -17
2 -17 9 0 9 -3 0 -14 -8 -10 -9 -16 -1 -21 7 -4 7 -12 0 -26 -8 -13 -7 -19 0
-19 6 0 8 -5 4 -12 -11 -18 -12 -48 -2 -48 5 0 4 -9 -2 -19 -5 -11 -7 -22 -2
-25 9 -5 9 -53 0 -62 -3 -3 -4 -14 -1 -25 4 -14 9 -17 18 -9 8 7 12 5 12 -5 0
-8 -3 -12 -7 -10 -3 2 -12 0 -20 -6 -11 -6 -12 -9 -2 -9 7 0 11 -3 9 -7 -3 -5
-1 -17 3 -28 5 -13 2 -24 -9 -33 -13 -10 -13 -12 -1 -10 11 2 14 -8 15 -44 0
-27 4 -48 9 -48 5 0 3 -7 -4 -15 -9 -11 -9 -15 -1 -15 7 0 9 -4 6 -10 -10 -17
-15 -51 -6 -45 5 2 11 -4 14 -15 3 -10 0 -21 -7 -24 -8 -3 -8 -5 1 -5 6 -1 9
-10 6 -21 -3 -11 -1 -20 4 -20 5 0 9 -22 8 -50 -1 -27 3 -50 9 -50 5 0 6 -3 3
-7 -4 -3 -1 -13 6 -21 10 -13 9 -14 -3 -7 -13 8 -13 7 -1 -8 11 -14 11 -17 0
-17 -11 -1 -11 -3 1 -13 8 -7 14 -23 12 -36 -2 -15 0 -21 7 -17 15 10 14 -7
-1 -22 -8 -8 -8 -12 -1 -12 6 0 10 -14 9 -31 -1 -18 3 -33 11 -36 10 -4 11 -9
2 -19 -9 -11 -8 -14 1 -14 7 0 10 -6 7 -14 -3 -7 0 -19 6 -25 6 -6 12 -19 13
-29 3 -54 5 -63 12 -58 5 3 9 -1 9 -9 0 -8 -4 -12 -9 -9 -4 3 -8 0 -8 -5 0 -6
4 -11 9 -11 11 0 23 -36 25 -78 1 -18 6 -36 12 -40 17 -11 25 -42 11 -42 -7 0
-4 -7 7 -15 11 -8 16 -21 13 -30 -4 -8 -1 -15 6 -15 8 0 6 -4 -3 -10 -13 -8
-13 -10 1 -10 9 0 16 -6 17 -12 5 -40 8 -55 18 -73 6 -11 10 -28 9 -38 -3 -14
0 -16 10 -7 11 9 12 7 8 -8 -2 -11 0 -23 6 -26 15 -10 14 -29 -1 -21 -7 4 -4
-2 8 -12 11 -10 19 -24 16 -31 -2 -6 1 -12 6 -12 6 0 9 -8 8 -17 -2 -10 3 -23
10 -30 7 -7 11 -23 9 -34 -3 -17 -1 -19 10 -9 11 9 12 7 8 -9 -3 -12 -1 -21 5
-21 5 0 13 -7 16 -16 3 -8 2 -12 -4 -9 -6 3 -10 1 -10 -4 0 -10 13 -15 31 -13
4 1 5 -12 3 -28 -3 -21 1 -30 11 -30 8 0 12 -8 10 -20 -2 -12 2 -20 10 -20 8
0 12 -9 11 -25 -2 -13 0 -24 3 -23 3 0 13 0 21 -1 13 -1 13 -2 0 -11 -13 -9
-13 -10 0 -10 12 0 13 -2 1 -9 -11 -7 -9 -10 7 -15 14 -5 19 -13 17 -26 -2
-13 2 -20 11 -20 8 0 13 -4 9 -9 -3 -5 2 -16 10 -24 8 -9 15 -23 15 -31 0 -9
4 -16 9 -16 10 0 27 -39 23 -52 -1 -5 4 -8 12 -8 8 0 20 -16 27 -34 7 -19 17
-32 22 -29 6 4 8 -3 5 -15 -4 -15 -2 -22 8 -22 8 0 14 -9 14 -19 0 -11 5 -23
12 -27 7 -5 8 -3 3 6 -5 9 -4 11 4 6 6 -4 9 -11 6 -16 -3 -5 1 -15 9 -23 8 -8
12 -17 9 -21 -4 -3 -1 -6 5 -6 7 0 12 -7 12 -16 0 -8 4 -12 10 -9 9 6 14 -8
11 -27 0 -5 5 -8 13 -8 9 0 12 -7 9 -22 -4 -19 -3 -20 6 -8 10 13 11 13 12 0
1 -8 1 -18 0 -22 0 -5 5 -7 12 -5 6 1 11 -4 10 -10 -2 -7 2 -13 7 -13 6 0 10
-7 10 -16 0 -8 3 -13 8 -11 4 3 13 -1 20 -9 9 -10 10 -14 1 -14 -7 0 -2 -9 11
-20 13 -11 27 -20 33 -20 5 0 3 -8 -4 -17 -7 -10 -10 -15 -5 -11 10 9 36 -15
36 -34 0 -10 3 -9 10 2 8 13 10 12 10 -3 0 -11 14 -32 31 -48 17 -16 28 -29
24 -29 -4 0 4 -9 19 -21 14 -11 26 -27 26 -35 0 -13 13 -19 34 -15 5 1 3 -6
-5 -15 -8 -10 -9 -15 -3 -11 6 3 16 -3 24 -13 8 -10 17 -17 22 -14 4 3 8 -4 8
-16 0 -12 5 -18 10 -15 6 3 10 -2 10 -11 0 -10 3 -15 6 -11 8 8 33 -16 27 -25
-2 -5 1 -8 7 -8 15 0 41 -26 33 -34 -4 -3 1 -6 10 -6 8 0 19 -9 22 -20 4 -11
10 -18 14 -16 9 6 41 -30 41 -45 0 -5 4 -7 10 -4 5 3 10 1 10 -4 0 -6 6 -11
13 -11 7 0 17 -10 22 -22 6 -13 20 -28 33 -34 13 -6 30 -21 38 -33 9 -12 19
-19 24 -16 4 3 11 -2 14 -11 3 -8 10 -12 16 -9 6 3 7 -1 4 -10 -4 -10 -2 -15
7 -13 8 2 13 -2 12 -9 -2 -7 4 -10 12 -7 14 6 20 -7 16 -30 -1 -5 5 -4 13 4
13 10 16 10 16 -4 0 -10 4 -14 10 -11 5 3 10 -2 10 -11 0 -10 3 -15 6 -11 4 3
13 -1 21 -9 8 -8 19 -11 25 -8 7 4 8 2 4 -4 -4 -7 -2 -12 4 -12 6 0 9 -4 6 -8
-2 -4 5 -9 16 -9 12 -1 28 -10 37 -19 15 -17 15 -17 -4 -3 -18 13 -19 13 -6
-3 7 -10 17 -15 21 -13 5 3 20 -6 34 -20 14 -14 32 -25 41 -25 8 0 15 -7 15
-16 0 -8 5 -12 10 -9 6 3 10 1 10 -5 0 -6 4 -9 9 -6 5 3 12 -1 15 -10 3 -9 13
-14 21 -10 8 3 17 0 21 -6 5 -7 2 -8 -6 -3 -9 5 -11 4 -6 -3 4 -7 14 -12 22
-12 8 0 14 -4 14 -10 0 -5 6 -10 14 -10 7 0 19 -7 26 -15 7 -8 16 -12 21 -9 5
3 8 0 7 -8 -2 -7 5 -12 14 -12 10 1 16 -1 14 -5 -2 -3 2 -11 9 -18 11 -10 15
-10 18 0 3 7 6 4 6 -6 1 -10 5 -16 10 -13 5 3 12 -1 15 -10 4 -9 9 -14 13 -11
3 4 12 -1 20 -11 9 -11 12 -11 7 -2 -4 9 1 7 14 -5 40 -38 52 -46 62 -40 9 6
14 -8 11 -28 0 -4 2 -6 6 -5 15 3 63 -22 63 -32 0 -6 4 -9 9 -5 5 3 16 -2 24
-10 9 -8 21 -15 27 -15 6 0 13 -7 16 -15 4 -8 10 -12 15 -9 5 3 9 0 9 -5 0 -6
7 -11 16 -11 9 0 12 -5 8 -12 -4 -6 -3 -8 4 -4 6 3 17 0 25 -8 8 -8 17 -12 21
-9 3 4 6 -2 7 -13 0 -10 3 -14 6 -7 3 10 7 10 18 0 7 -7 10 -16 7 -21 -3 -5 0
-6 7 -2 7 5 17 1 24 -7 7 -9 19 -17 27 -19 8 -2 22 -11 32 -21 9 -10 25 -19
36 -20 12 0 20 -6 19 -12 -1 -5 4 -9 11 -7 6 1 12 -2 12 -7 0 -5 9 -13 20 -16
11 -4 18 -11 15 -16 -3 -5 2 -6 11 -2 12 4 15 3 10 -5 -7 -11 14 -17 39 -12 5
1 7 -1 3 -5 -4 -4 -1 -14 7 -21 17 -17 28 -18 20 -1 -3 6 2 2 11 -11 9 -12 23
-22 31 -22 8 0 11 -5 8 -10 -3 -6 3 -10 14 -10 12 0 21 -4 21 -10 0 -5 7 -10
15 -10 8 0 15 -5 15 -11 0 -5 4 -7 10 -4 5 3 10 -2 11 -12 0 -11 3 -13 6 -5 4
10 8 8 18 -5 7 -10 19 -18 27 -18 7 -1 12 -6 10 -13 -1 -7 9 -12 24 -12 14 0
23 -4 19 -10 -5 -9 -1 -11 20 -10 12 1 33 -26 27 -34 -3 -5 0 -6 6 -2 6 3 17
-1 25 -9 9 -8 23 -15 32 -15 9 0 13 -4 10 -10 -6 -9 8 -14 20 -7 2 1 12 -8 20
-20 9 -13 25 -23 36 -23 10 0 19 -4 19 -10 0 -5 6 -10 14 -10 8 0 18 -5 22
-12 5 -7 3 -8 -6 -3 -9 5 -11 4 -6 -4 4 -6 12 -9 17 -5 6 3 18 -3 28 -15 10
-11 21 -18 25 -14 3 3 6 0 6 -7 0 -7 3 -11 6 -7 4 3 14 -2 23 -11 9 -10 14
-13 11 -7 -3 6 3 3 12 -8 10 -10 22 -16 27 -13 5 4 12 -3 16 -14 4 -11 11 -18
16 -15 5 4 12 0 15 -9 3 -8 11 -13 19 -10 7 3 15 -2 18 -10 4 -9 13 -16 22
-16 8 0 15 -5 15 -11 0 -5 4 -7 10 -4 6 3 10 -1 10 -9 0 -9 7 -13 20 -11 11 2
19 -1 17 -8 -1 -7 4 -11 11 -9 6 1 12 -6 12 -15 0 -15 2 -16 10 -3 6 10 10 11
10 3 0 -7 7 -13 16 -13 8 0 13 -4 10 -9 -3 -5 7 -14 22 -20 15 -6 43 -25 62
-41 19 -17 41 -30 48 -30 7 0 11 -4 8 -8 -3 -5 0 -9 7 -9 17 0 67 -33 67 -44
0 -5 6 -6 14 -3 7 3 16 -2 20 -11 3 -9 10 -13 16 -10 5 3 10 1 10 -4 0 -6 5
-11 11 -11 6 0 25 -11 43 -25 46 -37 50 -40 65 -49 10 -7 12 -5 6 5 -4 8 2 4
14 -9 12 -12 26 -20 32 -17 5 4 9 1 9 -5 0 -6 5 -8 13 -4 8 6 8 3 -1 -9 -12
-14 -11 -16 6 -12 10 2 25 -5 33 -16 7 -10 21 -19 31 -19 10 0 18 -4 18 -10 0
-5 7 -10 15 -10 8 0 15 -4 15 -10 0 -5 7 -10 15 -10 8 0 15 -5 15 -12 0 -6 3
-8 7 -5 3 4 11 0 17 -8 6 -7 18 -15 26 -17 8 -2 21 -11 28 -20 7 -10 22 -18
33 -18 11 0 22 -7 25 -15 4 -8 9 -13 13 -10 4 2 14 -5 21 -16 8 -10 23 -19 33
-19 10 0 15 -4 12 -10 -3 -5 3 -10 15 -10 12 0 18 -4 15 -10 -3 -5 3 -10 15
-10 12 0 18 -4 15 -10 -3 -5 3 -10 14 -10 12 0 21 -4 21 -10 0 -5 6 -10 14
-10 7 0 21 -10 30 -23 9 -12 14 -15 10 -7 -6 11 -2 11 13 -3 11 -9 23 -14 27
-10 4 4 4 0 1 -9 -5 -13 -2 -15 15 -11 14 4 20 1 18 -8 -2 -8 2 -13 9 -12 6 2
15 -7 18 -18 5 -16 10 -18 21 -8 14 11 19 2 15 -24 -1 -5 3 -6 8 -3 5 4 16 -1
25 -10 9 -8 20 -13 25 -10 5 4 18 -4 28 -17 19 -24 50 -30 45 -8 -1 7 2 9 8 6
6 -4 20 1 32 12 11 10 23 17 27 17 3 -1 5 3 3 8 -2 6 3 8 11 5 8 -3 20 3 27
13 8 11 17 17 22 14 4 -3 8 0 8 6 0 7 7 10 14 7 10 -4 13 -1 9 9 -3 10 0 12
10 9 8 -4 17 1 21 10 3 9 11 13 16 10 6 -4 9 -1 8 7 -2 8 6 13 19 12 12 0 20
3 18 7 -3 4 3 13 12 20 14 12 16 12 9 -1 -4 -8 0 -6 8 4 9 11 16 16 16 12 0
-4 12 6 26 21 15 15 23 21 18 13 -6 -11 -4 -10 7 2 9 9 19 14 23 11 3 -3 8 2
12 11 3 9 10 13 15 10 5 -3 9 0 9 7 0 7 3 10 6 6 4 -3 15 4 26 16 11 12 17 15
13 7 -4 -8 3 -4 15 10 12 14 19 19 15 13 -4 -9 -1 -11 9 -7 9 3 13 10 10 15
-3 5 2 9 10 9 9 0 16 3 16 8 0 4 10 12 23 17 12 6 21 17 19 25 -3 11 0 11 12
0 13 -10 16 -10 16 4 0 14 11 21 33 17 4 0 7 6 7 15 0 11 6 15 20 11 11 -3 18
-1 15 3 -3 5 13 17 35 27 22 10 40 24 40 31 0 7 8 12 18 10 9 -2 16 2 15 9 -2
8 4 10 14 6 11 -4 14 -3 9 5 -4 7 -2 12 5 12 6 0 18 8 26 18 8 9 11 11 8 4 -6
-11 -3 -12 14 -3 11 7 21 16 21 21 0 6 6 10 14 10 7 0 28 13 47 29 18 16 36
28 40 25 4 -2 10 3 13 12 4 10 12 14 22 10 14 -5 15 -4 4 9 -11 13 -10 14 4 9
9 -3 16 -1 16 6 0 6 5 8 10 5 6 -3 10 -2 10 3 0 5 14 15 30 22 17 7 30 16 30
21 0 5 11 11 25 15 14 3 25 10 25 16 0 5 -5 6 -12 2 -6 -4 -8 -3 -4 4 3 6 16
9 28 7 11 -3 18 -2 15 1 -3 4 0 12 6 19 9 9 16 10 25 3 9 -8 11 -7 6 7 -4 10
-3 16 2 13 12 -8 35 17 26 28 -4 5 1 2 10 -5 15 -11 19 -11 24 3 3 9 10 13 15
10 9 -5 13 11 9 31 -1 6 2 7 6 3 4 -4 14 -2 22 5 13 10 15 9 8 -3 -4 -9 -2 -8
7 2 8 10 18 14 22 10 5 -4 6 0 2 10 -4 11 -1 15 11 13 9 -1 25 7 35 19 10 11
16 15 12 9 -4 -8 -1 -11 9 -7 9 3 12 12 9 21 -4 11 -2 14 5 9 13 -8 44 17 37
28 -3 3 0 2 7 -4 8 -6 19 -1 36 18 13 15 21 21 17 14 -6 -11 -3 -11 13 -1 12
7 18 17 15 23 -4 5 1 7 11 3 13 -5 17 -3 13 7 -4 10 1 13 18 11 13 -1 23 3 22
9 -1 6 4 10 12 8 9 -2 11 3 7 15 -4 9 -4 14 0 10 4 -4 14 -1 22 6 13 10 15 9
8 -3 -4 -8 2 -5 13 8 13 15 25 21 33 16 9 -6 9 -3 -1 9 -12 15 -12 17 2 12 9
-4 24 3 37 17 13 13 19 17 15 9 -5 -9 1 -7 19 4 14 9 23 21 21 26 -3 4 4 6 16
4 18 -4 19 -2 7 12 -9 12 -9 15 -1 9 7 -4 22 0 34 8 12 8 29 12 38 9 12 -4 11
-2 -3 9 -18 14 -17 15 13 13 17 -1 35 3 38 8 3 6 1 7 -5 3 -7 -4 -12 -2 -12 3
0 6 7 11 15 11 8 0 15 5 15 10 0 6 6 9 13 8 6 -2 11 3 9 10 -1 6 1 11 5 11 19
-3 32 3 59 26 16 14 35 23 42 20 7 -3 11 -1 8 3 -2 4 9 14 25 21 16 7 29 19
29 28 0 10 6 12 20 8 15 -5 18 -2 15 15 -3 18 -2 20 10 10 11 -9 15 -9 15 -1
0 6 7 11 16 11 8 0 13 4 10 9 -3 5 1 12 10 15 8 3 12 2 9 -4 -3 -6 -4 -10 0
-10 3 0 10 11 15 24 6 18 15 23 35 21 22 -3 24 -1 14 11 -10 12 -9 13 5 8 11
-4 16 -1 17 12 0 11 3 14 6 7 3 -8 13 -4 29 12 14 14 30 23 35 20 5 -4 9 2 9
12 0 15 2 16 10 3 8 -13 10 -12 10 3 0 10 5 15 10 12 6 -3 13 1 16 9 3 8 16
18 27 22 12 4 28 14 35 23 8 9 10 10 7 3 -6 -11 -3 -11 13 -1 12 7 19 16 17
19 -2 3 6 12 18 20 21 12 21 12 7 -5 -14 -18 -13 -18 11 0 15 11 25 23 23 27
-2 4 0 9 6 13 5 3 10 1 10 -5 0 -6 5 -8 10 -5 6 4 8 10 5 15 -3 5 3 7 14 5 15
-3 18 0 14 12 -4 11 -2 14 5 9 7 -4 12 -3 12 2 0 6 11 13 25 16 18 5 23 11 18
24 -5 13 -3 14 7 5 10 -9 17 -7 33 8 11 10 27 19 35 19 9 0 12 6 8 16 -6 15
-4 15 11 3 10 -7 15 -9 11 -5 -4 5 2 17 14 27 27 24 34 24 18 2 -7 -10 -1 -6
13 9 14 15 28 24 31 21 3 -4 6 -1 6 6 0 7 5 9 10 6 6 -3 10 1 10 10 0 9 5 13
10 10 6 -3 13 0 16 9 3 8 12 12 20 9 8 -3 14 0 14 7 0 6 5 8 10 5 6 -3 10 1
10 9 0 9 7 16 15 16 8 0 15 6 15 13 0 8 4 7 11 -3 9 -12 10 -11 6 7 -3 15 -1
20 9 16 8 -3 14 0 14 6 0 6 4 10 9 9 5 -2 17 6 26 17 9 11 13 14 9 6 -5 -9 -3
-12 4 -7 7 4 12 15 12 24 0 15 2 15 10 2 8 -13 10 -12 10 3 0 10 5 15 10 12 6
-3 13 1 16 9 3 9 10 13 15 10 9 -5 13 10 10 30 -1 5 4 4 13 -3 11 -9 16 -9 22
0 5 8 3 9 -6 4 -9 -6 -11 -4 -5 4 4 7 16 11 26 8 11 -3 17 -1 14 3 -3 5 1 15
9 23 8 8 12 18 8 22 -4 5 -2 5 5 1 7 -4 22 4 34 18 12 14 26 23 31 20 4 -3 8
-1 8 3 0 5 7 18 16 29 8 10 13 13 9 7 -4 -8 -1 -11 9 -7 9 3 12 12 9 22 -5 12
-2 14 11 9 10 -4 15 -3 11 3 -3 6 1 10 9 10 9 0 15 5 14 11 -2 6 3 14 11 17 9
3 11 0 6 -9 -5 -8 -4 -11 1 -6 9 8 10 12 13 39 0 6 4 8 8 5 3 -4 16 5 29 18
13 14 29 25 36 25 9 0 9 3 -2 10 -13 9 -13 10 0 11 8 1 19 1 23 0 5 -1 6 3 3
8 -3 5 6 16 20 26 14 9 23 23 20 30 -3 9 2 12 16 10 11 -3 18 -2 15 1 -3 4 5
16 17 28 13 11 21 26 19 33 -3 7 4 10 19 7 13 -2 17 -1 10 2 -9 4 -6 13 13 30
14 13 31 24 36 24 6 0 8 4 4 9 -7 12 41 62 50 52 4 -3 6 -1 5 4 -5 21 0 36 10
30 6 -3 10 0 10 8 0 8 11 23 25 33 14 10 25 23 25 27 0 5 7 15 15 24 8 8 13
19 9 24 -3 5 -2 9 3 8 20 -3 34 2 28 11 -3 6 1 13 9 16 9 3 16 10 16 16 0 5
-5 6 -12 2 -7 -5 -8 -3 -4 5 5 7 10 10 13 7 10 -10 41 28 38 46 -2 10 0 16 4
13 5 -2 15 3 22 12 12 14 12 16 -1 9 -8 -4 -5 1 8 10 12 9 22 23 22 30 0 8 3
14 8 14 4 0 13 14 20 30 8 17 17 28 22 25 5 -3 7 6 5 20 -2 22 0 23 13 13 13
-11 15 -10 10 10 -4 12 -2 20 2 17 5 -3 14 8 22 25 7 16 17 30 21 30 5 0 5 5
1 12 -5 7 -2 9 8 5 12 -4 14 -1 10 15 -3 15 -1 19 7 14 6 -4 11 -4 10 1 -4 22
2 43 11 38 9 -6 14 8 11 27 0 5 4 8 11 8 6 0 9 3 5 6 -3 4 2 14 11 23 10 9 11
12 3 6 -12 -9 -12 -7 -2 13 7 12 15 20 19 18 5 -3 9 5 9 16 1 11 9 25 18 31 8
7 17 23 20 37 3 14 10 27 15 28 7 3 6 10 -2 20 -11 13 -10 15 5 9 13 -5 17 -2
15 11 -2 10 3 16 10 14 8 -1 11 2 7 8 -4 6 -1 17 5 25 10 12 10 15 -1 16 -8 0
-3 5 11 11 15 6 20 12 13 15 -7 3 -13 9 -13 14 0 6 5 7 10 4 6 -3 11 -1 11 4
1 6 2 17 3 24 1 6 7 11 13 10 7 -2 10 6 8 17 -2 11 1 20 6 20 6 0 8 4 4 9 -3
5 1 15 8 23 8 7 13 23 12 35 -1 12 3 21 9 20 6 -1 10 4 8 12 -1 7 7 22 19 32
20 17 20 19 4 19 -17 0 -17 1 -2 18 10 10 14 22 10 25 -3 4 -1 7 5 7 6 0 9 9
7 20 -3 14 2 20 13 20 15 0 15 2 2 10 -10 6 -11 10 -2 10 6 0 12 9 12 20 0 11
6 20 13 20 9 0 8 3 -2 9 -11 7 -10 10 4 18 12 7 14 12 6 17 -8 5 -7 12 4 22 8
9 13 20 10 25 -4 5 -2 9 3 9 6 0 8 10 4 22 -3 14 -1 19 6 14 7 -4 10 1 7 14
-2 11 0 20 4 20 5 0 8 8 7 18 0 10 5 16 14 14 11 -2 11 1 -3 12 -16 12 -16 14
-2 20 9 3 13 11 10 17 -4 5 1 19 11 30 17 19 17 20 -2 13 -19 -7 -19 -7 0 14
11 12 16 22 11 22 -4 0 -1 8 6 17 10 11 10 14 2 9 -7 -4 -13 -2 -13 3 0 6 5
11 11 11 6 0 9 6 6 13 -2 6 3 21 12 31 11 14 12 17 2 11 -11 -6 -13 -4 -6 11
4 10 7 27 7 37 0 9 3 15 8 12 5 -3 7 6 4 21 -3 19 -1 24 8 18 11 -6 11 -5 0 8
-10 13 -10 17 2 21 8 3 12 15 9 30 -3 14 0 34 6 46 9 15 9 21 1 21 -14 0 -2
42 14 52 7 5 6 8 -4 8 -9 0 -11 3 -5 8 6 4 10 14 10 22 -1 8 1 19 4 25 8 15
12 45 13 97 0 33 4 46 12 41 8 -5 8 -3 1 8 -12 16 -13 39 -2 57 5 6 4 12 0 12
-5 0 -9 9 -9 19 0 11 3 18 7 15 4 -2 10 3 13 12 3 8 2 13 -3 10 -5 -3 -11 1
-14 9 -4 10 -1 12 10 8 13 -5 14 -3 4 15 -9 17 -9 22 0 22 8 0 7 5 -2 17 -10
11 -10 14 -1 9 17 -10 15 5 -4 32 -11 16 -12 22 -3 20 7 -2 13 6 13 17 0 11 5
23 11 27 7 5 7 8 0 8 -6 0 -11 16 -11 35 0 19 5 35 11 35 6 0 7 3 0 8 -5 4
-10 14 -10 22 0 8 5 18 10 22 7 5 6 8 0 8 -6 0 -11 9 -11 20 0 11 4 20 9 20 4
0 5 6 1 12 -10 16 -10 50 0 66 4 6 3 12 -2 12 -12 0 -10 43 3 52 6 5 6 8 -2 8
-12 0 -12 17 0 36 3 6 3 14 0 18 -12 12 -12 40 0 48 7 4 8 8 2 8 -5 0 -11 16
-12 35 -1 21 3 35 9 35 7 0 3 7 -8 15 -14 11 -15 14 -4 15 13 0 13 1 0 10 -8
5 -10 10 -5 10 6 0 10 13 10 29 0 24 -3 27 -14 18 -12 -10 -12 -9 -3 10 8 14
9 24 2 28 -7 4 -7 12 0 25 6 10 6 21 2 24 -5 3 -8 18 -7 33 1 15 -6 34 -14 41
-14 10 -13 11 4 5 19 -7 19 -6 3 19 -12 18 -14 29 -7 33 7 5 4 14 -8 28 -10
11 -13 17 -7 14 13 -8 14 47 1 60 -5 4 -5 -1 -2 -12 6 -16 5 -17 -3 -5 -8 10
-7 18 0 28 9 10 9 15 1 20 -6 4 -10 23 -9 42 1 19 -3 41 -8 49 -6 7 -11 19
-13 27 -7 34 -9 40 -17 53 -7 10 -5 12 3 6 10 -6 11 -3 2 13 -6 11 -8 29 -5
39 4 13 3 14 -4 5 -7 -11 -10 -9 -15 7 -3 12 -1 19 4 16 4 -3 2 7 -6 21 -8 15
-12 31 -9 36 3 4 0 8 -6 8 -7 0 -10 14 -9 34 2 19 -1 39 -5 43 -5 4 -6 2 -2
-4 4 -7 2 -13 -5 -13 -6 0 -9 8 -6 20 3 11 1 20 -4 20 -4 0 -6 6 -3 13 3 8 -2
20 -11 27 -10 8 -12 16 -5 20 6 4 5 13 -6 26 -8 10 -12 13 -8 5 4 -9 3 -12 -4
-8 -5 4 -8 16 -5 28 3 12 1 24 -6 28 -6 4 -12 19 -13 33 -1 15 -6 24 -10 22
-7 -5 -9 1 -12 45 -1 8 -6 16 -13 18 -7 3 -9 11 -6 19 3 8 -2 23 -11 33 -9 10
-13 21 -9 24 3 4 -1 7 -10 7 -9 0 -17 5 -17 11 0 5 6 7 13 3 9 -6 9 -5 0 8 -7
8 -9 19 -5 23 4 5 1 5 -5 1 -7 -4 -14 -2 -14 3 -5 40 -20 71 -35 71 -8 0 -14
5 -14 11 0 5 6 7 13 3 8 -6 8 -3 -1 9 -8 9 -11 21 -7 27 4 6 1 9 -7 8 -7 -2
-12 3 -10 10 1 6 -4 12 -12 12 -9 0 -13 9 -12 25 2 13 -1 22 -5 19 -5 -3 -9 0
-9 6 0 6 -4 8 -10 5 -6 -3 -7 1 -4 9 4 9 0 18 -9 22 -9 3 -13 12 -10 20 3 8 0
14 -7 14 -6 0 -8 5 -5 10 3 6 -1 10 -10 10 -9 0 -15 6 -12 13 2 6 -3 18 -12
25 -13 11 -13 12 -1 7 10 -4 9 -2 -2 8 -10 8 -18 20 -18 26 0 7 -5 9 -10 6 -6
-3 -10 3 -10 14 0 11 -9 26 -20 34 -11 8 -17 17 -13 20 3 4 -2 7 -13 7 -13 0
-15 3 -7 8 9 6 7 12 -7 22 -11 8 -20 21 -20 28 0 8 -6 12 -14 9 -11 -4 -13 -1
-9 10 4 11 2 14 -5 9 -8 -5 -12 0 -12 14 0 12 -4 19 -8 16 -4 -2 -13 8 -21 24
-7 16 -21 32 -31 35 -11 3 -19 10 -17 14 1 4 -18 26 -42 48 -29 28 -41 46 -35
55 5 9 2 9 -11 -2 -11 -9 -16 -10 -11 -2 4 7 2 12 -4 12 -7 0 -10 7 -6 15 3 8
2 14 -2 14 -16 -2 -51 14 -47 22 7 10 -35 49 -52 49 -8 0 -11 5 -8 10 3 6 1
10 -5 10 -17 0 -40 26 -32 35 4 5 2 5 -4 2 -7 -4 -23 4 -35 18 -13 13 -30 25
-36 25 -7 0 -13 7 -13 16 0 8 -4 13 -9 9 -6 -3 -18 3 -28 14 -10 10 -28 22
-40 25 -13 4 -23 14 -23 22 0 8 -4 12 -10 9 -5 -3 -10 -1 -10 5 0 6 -4 8 -10
5 -5 -3 -10 1 -10 9 0 10 -7 13 -21 11 -12 -3 -19 -2 -16 2 7 7 -18 33 -31 33
-6 0 -13 -6 -16 -12 -3 -7 -3 -3 0 10 4 17 1 22 -15 22 -12 0 -21 5 -21 10 0
6 -9 10 -21 10 -13 0 -18 4 -13 12 5 7 2 9 -8 6 -8 -4 -19 2 -26 13 -7 10 -18
16 -27 13 -9 -4 -18 1 -21 11 -5 13 -9 14 -15 4 -6 -11 -9 -10 -15 4 -3 9 -15
17 -26 17 -10 0 -17 4 -13 9 3 6 -4 8 -15 6 -11 -2 -20 1 -20 6 0 6 -4 7 -10
4 -5 -3 -10 0 -10 8 0 10 -7 13 -20 10 -12 -3 -20 0 -20 6 0 7 -4 9 -10 6 -5
-3 -10 -2 -10 4 0 6 -7 8 -15 5 -8 -4 -15 -1 -15 5 0 6 -11 11 -24 11 -13 0
-29 6 -35 14 -6 7 -23 12 -37 10 -18 -2 -24 2 -20 11 3 9 0 12 -11 8 -8 -3
-19 0 -24 8 -5 8 -9 9 -9 3 0 -6 -7 -11 -15 -11 -10 0 -12 4 -5 12 8 10 3 12
-20 10 -16 -1 -30 2 -30 7 0 5 -4 6 -10 3 -5 -3 -10 -2 -10 4 0 5 -11 8 -25 6
-14 -1 -25 2 -25 7 0 5 -10 4 -21 -3 -15 -8 -19 -8 -15 0 4 6 2 11 -4 11 -6 0
-8 5 -4 13 6 9 5 9 -7 0 -12 -10 -18 -10 -29 0 -7 6 -10 7 -7 1 3 -6 0 -11 -8
-11 -8 0 -12 4 -10 8 3 4 -2 10 -11 13 -8 3 -12 2 -9 -4 3 -6 -1 -7 -9 -4 -9
3 -13 11 -9 17 4 6 1 7 -8 1 -20 -12 -39 -14 -39 -3 0 4 -7 6 -16 2 -11 -4
-23 1 -32 13 -13 17 -14 17 -9 1 6 -14 3 -16 -12 -8 -10 6 -21 7 -25 4 -3 -3
-6 -1 -6 5 0 7 -5 12 -11 12 -5 0 -7 -5 -3 -11 5 -8 1 -8 -13 0 -14 7 -24 7
-33 -2 -10 -10 -12 -8 -7 6 4 9 2 17 -3 17 -6 0 -10 -6 -10 -12 0 -9 -4 -8
-10 2 -5 8 -10 11 -10 5 0 -5 -13 -10 -29 -10 -21 0 -27 4 -23 15 4 11 2 12
-7 4 -8 -7 -25 -9 -47 -4 -19 4 -34 5 -34 1 0 -4 -9 -7 -20 -7 -11 0 -20 4
-20 8 0 4 -5 8 -11 8 -5 0 -8 -4 -4 -9 3 -6 -6 -7 -22 -2 -25 6 -84 7 -90 1
-8 -7 -29 -5 -34 3 -4 6 -13 6 -20 1 -21 -13 -39 -13 -39 -1 0 8 -3 9 -8 2 -4
-6 -23 -12 -42 -13 -19 -1 -45 -3 -57 -3 -14 -1 -20 -6 -16 -13 4 -6 -1 -5
-10 3 -14 11 -20 11 -32 1 -10 -8 -15 -9 -15 -2 0 6 -7 9 -15 6 -8 -4 -12 -11
-8 -18 4 -6 -1 -5 -10 3 -12 9 -17 10 -17 2 0 -9 -5 -9 -21 0 -17 9 -20 8 -14
-1 6 -10 1 -12 -19 -8 -14 3 -26 1 -26 -3 0 -5 -7 -5 -17 -2 -11 5 -14 3 -8
-6 6 -10 3 -11 -13 -2 -15 8 -23 8 -28 -1 -5 -7 -3 -8 7 -3 8 5 11 4 7 0 -11
-12 -60 -16 -53 -4 3 5 -1 6 -9 3 -9 -3 -14 -10 -11 -15 3 -4 -3 -6 -15 -4
-11 2 -22 0 -25 -5 -3 -5 -13 -6 -22 -3 -10 4 -14 2 -10 -4 9 -15 -29 -23 -42
-10 -8 8 -11 7 -11 -2 0 -7 -4 -10 -9 -7 -5 3 -11 0 -14 -7 -3 -8 -18 -12 -36
-11 -20 1 -35 -4 -41 -14 -5 -10 -10 -13 -10 -8 0 5 -8 2 -17 -5 -9 -8 -14 -9
-10 -2 9 15 -19 11 -35 -5 -7 -7 -20 -12 -31 -12 -10 0 -16 -4 -13 -9 4 -5 -2
-8 -11 -7 -21 3 -43 -15 -35 -29 3 -5 -1 -4 -10 3 -13 10 -19 10 -32 -3 -9 -9
-20 -13 -26 -10 -5 3 -10 1 -10 -5 0 -7 -7 -10 -14 -7 -10 4 -13 1 -9 -9 3
-10 0 -12 -10 -8 -8 3 -24 -4 -36 -17 -11 -12 -24 -19 -28 -16 -3 4 -1 7 5 7
7 0 12 6 12 13 -1 7 -8 3 -18 -9 -10 -11 -23 -19 -30 -16 -6 2 -12 -1 -12 -7
0 -6 -9 -11 -21 -11 -11 0 -17 -4 -14 -10 3 -5 -1 -10 -9 -10 -8 0 -25 -10
-37 -22 -12 -13 -19 -16 -15 -8 6 12 5 12 -6 -1 -7 -9 -19 -14 -27 -11 -9 3
-12 0 -8 -10 4 -11 -1 -14 -18 -12 -18 1 -22 -2 -18 -14 4 -10 2 -13 -5 -8 -7
4 -15 1 -18 -7 -3 -9 -16 -18 -30 -21 -13 -4 -24 -11 -24 -16 0 -6 -6 -10 -14
-10 -8 0 -17 -7 -20 -16 -3 -8 -10 -12 -16 -9 -6 3 -14 -4 -19 -17 -6 -13 -10
-16 -10 -8 -1 10 -6 7 -17 -8 -8 -12 -21 -19 -27 -16 -7 4 -9 4 -5 0 9 -10
-14 -36 -25 -29 -5 3 -11 -5 -14 -17 -3 -13 -11 -19 -19 -16 -8 3 -14 -1 -14
-10 0 -10 -6 -14 -14 -11 -10 4 -13 1 -9 -9 3 -9 0 -14 -8 -12 -8 2 -13 -3
-11 -9 1 -7 -3 -13 -9 -13 -13 0 -59 -46 -59 -59 0 -5 -9 -11 -21 -14 -13 -4
-18 -10 -13 -18 4 -7 3 -10 -4 -5 -6 3 -16 -3 -22 -14 -6 -11 -15 -18 -20 -15
-6 3 -7 -1 -4 -10 5 -11 0 -18 -15 -22 -11 -3 -19 -9 -16 -13 3 -5 -4 -12 -15
-15 -17 -5 -19 -9 -9 -21 7 -9 8 -14 3 -13 -21 4 -34 -2 -32 -13 2 -7 -3 -12
-11 -10 -8 2 -11 -3 -8 -12 7 -19 -9 -31 -17 -14 -4 7 -4 2 -2 -10 3 -13 2
-21 -1 -18 -9 9 -35 -23 -27 -35 4 -7 3 -9 -3 -6 -6 4 -19 -1 -29 -9 -10 -9
-13 -13 -7 -9 9 4 11 1 7 -9 -3 -9 -11 -13 -17 -9 -6 4 -8 0 -4 -10 3 -9 0
-18 -9 -21 -8 -3 -14 -13 -14 -23 0 -15 -2 -16 -10 -3 -9 13 -10 13 -11 0 -1
-8 -1 -21 0 -29 2 -7 -2 -10 -8 -6 -6 3 -11 1 -11 -5 0 -6 -5 -8 -10 -5 -6 4
-10 3 -9 -2 1 -4 1 -17 0 -28 -1 -17 -3 -18 -11 -5 -8 13 -10 12 -10 -2 0 -10
-5 -18 -10 -18 -6 0 -9 -3 -9 -7 3 -20 -2 -34 -10 -29 -5 3 -18 -12 -29 -35
-12 -23 -22 -35 -25 -27 -3 7 -6 3 -6 -9 -1 -12 -6 -25 -13 -29 -7 -5 -8 -3
-3 6 6 10 3 12 -14 7 -17 -4 -21 -2 -17 9 3 8 1 14 -4 14 -6 0 -10 7 -10 16 0
8 -4 12 -10 9 -6 -3 -10 3 -10 15 0 17 -4 20 -22 15 -16 -4 -19 -3 -9 3 10 7
10 11 1 17 -6 4 -9 13 -6 21 3 8 0 11 -8 8 -8 -3 -16 5 -20 21 -4 14 -11 23
-16 20 -5 -3 -11 -1 -15 5 -3 5 0 10 7 10 7 0 1 8 -15 18 -15 10 -24 22 -20
25 3 4 1 7 -5 7 -7 0 -12 10 -12 22 0 12 -3 19 -6 15 -8 -8 -35 19 -38 38 -3
20 -37 56 -48 49 -4 -3 -8 -2 -7 3 1 4 1 15 0 23 -1 13 -2 13 -11 0 -8 -12
-10 -9 -10 13 0 16 -4 26 -10 22 -5 -3 -10 1 -10 10 0 9 -4 14 -8 11 -4 -2
-14 9 -21 25 -8 17 -20 29 -32 29 -10 0 -18 3 -18 8 3 19 -2 33 -11 27 -5 -3
-10 -1 -10 5 0 15 -46 60 -54 53 -3 -4 -6 1 -6 10 0 10 -7 17 -16 17 -10 0
-14 6 -10 15 3 10 -3 17 -19 21 -14 3 -22 10 -19 15 3 5 0 9 -6 9 -6 0 -8 5
-4 13 6 9 4 9 -8 -1 -14 -11 -17 -10 -23 7 -3 12 -13 21 -21 21 -8 0 -14 7
-14 16 0 8 -4 13 -9 9 -5 -3 -12 4 -16 15 -3 11 -11 20 -16 20 -6 0 -7 -5 -3
-12 5 -7 3 -8 -5 -4 -7 5 -10 14 -7 22 3 8 0 11 -10 7 -9 -3 -14 1 -14 13 0
16 -2 17 -10 4 -8 -13 -10 -12 -10 3 0 10 -4 16 -8 13 -5 -3 -14 4 -22 14 -8
10 -17 17 -21 14 -4 -2 -15 6 -23 18 -9 12 -16 18 -16 13 0 -5 -7 0 -16 11 -8
10 -12 12 -8 4 4 -8 -4 -3 -19 13 -26 27 -44 36 -31 15 4 -7 3 -8 -4 -4 -7 4
-12 15 -13 24 0 10 -3 12 -6 5 -3 -10 -7 -10 -18 0 -7 7 -11 15 -8 19 2 4 -3
5 -11 2 -9 -3 -16 -1 -16 6 0 6 -4 8 -10 5 -5 -3 -10 -1 -10 5 0 6 -4 8 -10 5
-5 -3 -10 1 -10 9 0 9 -5 16 -11 16 -5 0 -7 -5 -4 -11 4 -6 -2 -5 -13 2 -12 7
-18 17 -15 23 3 5 1 6 -4 3 -6 -4 -16 0 -23 8 -7 8 -21 15 -31 15 -11 0 -19 5
-19 11 0 5 -4 7 -10 4 -5 -3 -10 0 -10 7 0 11 -2 10 -9 0 -7 -11 -9 -11 -14 2
-4 9 -16 16 -27 16 -11 0 -20 4 -20 9 0 5 -17 15 -37 22 -21 6 -46 18 -57 25
-10 7 -24 10 -32 7 -7 -3 -20 2 -29 11 -9 8 -22 13 -30 10 -8 -4 -15 -2 -15 3
0 4 -9 14 -21 21 -12 8 -18 9 -15 4 3 -6 -5 -9 -18 -8 -13 0 -22 4 -19 9 2 4
-5 7 -16 7 -11 0 -23 5 -26 10 -5 8 -12 7 -23 -2 -12 -10 -14 -10 -8 0 4 7 1
12 -8 12 -9 0 -16 6 -16 13 0 8 -4 7 -10 -3 -6 -9 -10 -11 -10 -3 0 7 -6 10
-14 7 -8 -3 -17 -1 -20 4 -3 5 -17 8 -31 7 -14 -2 -25 1 -25 7 0 6 -7 4 -17
-3 -11 -10 -14 -10 -9 -1 7 12 -9 17 -46 14 -10 -1 -18 3 -18 9 0 6 -9 8 -19
4 -11 -3 -35 1 -54 9 -26 11 -38 11 -46 3 -9 -9 -14 -8 -21 3 -5 8 -10 11 -10
7 0 -4 -7 -4 -16 1 -9 5 -34 6 -55 2 -24 -5 -39 -3 -39 3 0 5 -7 4 -15 -3 -13
-11 -14 -10 -10 2 5 12 0 15 -25 12 -17 -2 -36 -6 -41 -9 -5 -4 -9 -2 -9 4 0
10 -18 10 -37 -2 -6 -4 -14 -3 -18 3 -3 5 -11 10 -16 10 -6 0 -8 -4 -4 -9 3
-6 -6 -7 -22 -2 -24 6 -98 7 -98 1 0 -1 -10 -3 -22 -4 -13 -2 -23 2 -23 8 0 6
-5 4 -10 -4 -6 -10 -10 -11 -10 -3 0 9 -7 10 -25 3 -16 -6 -25 -6 -25 1 0 6
-6 6 -17 1 -10 -5 -24 -7 -32 -4 -8 3 -11 0 -7 -7 10 -16 0 -14 -18 5 -13 13
-16 13 -16 1z m2295 -986 c3 -5 2 -12 -3 -15 -5 -3 -9 1 -9 9 0 17 3 19 12 6z
m5060 -1220 c3 -5 2 -12 -3 -15 -5 -3 -9 1 -9 9 0 17 3 19 12 6z m-8295 -3991
c0 -5 -2 -10 -4 -10 -3 0 -8 5 -11 10 -3 6 -1 10 4 10 6 0 11 -4 11 -10z
m5690 -904 c0 -2 -8 -10 -17 -17 -16 -13 -17 -12 -4 4 13 16 21 21 21 13z"/>
</g>
</svg>
